<svg width="176" height="39" viewBox="0 0 176 39" fill="none" xmlns="http://www.w3.org/2000/svg">
<path d="M176 0V1.40246H92.4568V0H176ZM92.4568 38.2171H176V36.8146H92.4568V38.2171ZM92.502 24.3239V28.2245C92.502 31.643 94.2199 33.3523 97.7913 33.3523H98.6954C102.267 33.3523 104.075 31.643 104.075 28.1369V24.061C104.075 21.6505 103.397 20.3357 101.317 18.8456L97.294 16.0406C96.3446 15.3832 95.8021 14.7697 95.8021 13.3672V9.86105C95.8021 8.41476 96.4803 7.75736 97.9721 7.75736H98.5598C100.052 7.75736 100.73 8.41476 100.73 9.86105V12.3592H103.939V9.94871C103.939 6.53021 102.222 4.82096 98.6502 4.82096H97.8365C94.2651 4.82096 92.4568 6.53021 92.4568 10.0364V13.411C92.4568 15.69 93.0897 17.1363 95.2144 18.6264L99.2379 21.4752C100.187 22.1326 100.685 22.7462 100.685 24.1486V28.356C100.685 29.8023 100.006 30.4597 98.5146 30.4597H97.9269C96.435 30.4597 95.7569 29.8023 95.7569 28.356V24.3239H92.502ZM112.438 33.0893V8.06415H116.778V5.08392H104.798V8.06415H109.138V33.0893H112.438ZM117.999 5.12775V28.1369C117.999 31.5992 119.762 33.3523 123.379 33.3523H124.418C127.99 33.3523 129.798 31.643 129.798 28.1369V5.12775H126.498V28.3122C126.498 29.7585 125.82 30.4159 124.328 30.4159H123.56C122.068 30.4159 121.39 29.7585 121.39 28.3122V5.12775H117.999ZM137.303 33.0893H131.878V5.08392H137.303C141.642 5.08392 143.677 7.09996 143.677 11.2635V26.8659C143.722 31.1171 141.642 33.0893 137.303 33.0893ZM140.422 11.2635C140.422 9.116 139.382 8.02032 137.167 8.02032H135.178V30.1529H137.167C139.382 30.1529 140.422 29.0572 140.422 26.9097V11.2635ZM145.711 5.12775V33.1331H149.011V5.12775H145.711ZM156.335 33.3523C152.763 33.3523 150.955 31.643 150.955 28.1369V10.0802C150.955 6.61786 152.718 4.86478 156.335 4.86478H157.555C161.127 4.86478 162.935 6.57403 162.935 10.0802V28.1369C162.935 31.5992 161.172 33.3523 157.555 33.3523H156.335ZM156.47 30.4159H157.465C158.957 30.4159 159.635 29.7585 159.635 28.3122V9.90488C159.635 8.45859 158.957 7.80119 157.465 7.80119H156.47C154.979 7.80119 154.301 8.50242 154.301 9.90488V28.3122C154.301 29.7585 154.979 30.4159 156.47 30.4159ZM164.382 24.3239V28.2245C164.382 31.643 166.1 33.3523 169.671 33.3523H170.575C174.147 33.3523 175.955 31.643 175.955 28.1369V24.061C175.955 21.6505 175.277 20.3357 173.197 18.8456L169.174 16.0406C168.224 15.3832 167.682 14.7697 167.682 13.3672V9.86105C167.682 8.41476 168.36 7.75736 169.852 7.75736H170.44C171.931 7.75736 172.61 8.41476 172.61 9.86105V12.3592H175.819V9.94871C175.819 6.53021 174.101 4.82096 170.53 4.82096H169.716C166.145 4.82096 164.337 6.53021 164.337 10.0364V13.411C164.337 15.69 164.969 17.1363 167.094 18.6264L171.118 21.4752C172.067 22.1326 172.564 22.7462 172.564 24.1486V28.356C172.564 29.8023 171.886 30.4597 170.394 30.4597H169.807C168.315 30.4597 167.637 29.8023 167.637 28.356V24.3239H164.382Z" fill="black"/>
<path d="M0 0V38.2609H87.5668V0H0ZM74.2306 10.2117H69.5742V16.5227H74.2306V21.6505H69.5742V28.0492H74.2306V33.0893H64.3754V7.71353L60.2163 33.0893H54.1585C54.1585 33.0893 51.0392 15.1203 51.0392 15.0764C51.5365 17.969 49.6377 20.9931 48.0103 22.2202L51.3104 33.0893H46.202L43.7156 23.8418L42.495 24.0171V33.0893H32.6398L32.0521 28.7943H27.9834L27.3957 33.0893H17.2692V19.5906L14.9184 33.0893H12.1608L9.81001 19.5906V33.0893H4.56595V5.08392H11.1662L13.4718 19.5468L15.8678 5.08392H22.4681V30.8103L26.4463 5.08392H33.3631L37.2057 29.9338V5.08392H42.495C47.2418 5.08392 49.4117 8.45858 50.0446 9.64191L49.4569 5.08392H54.7462L57.1422 22.1326L59.5382 5.08392H74.1854V10.2117H74.2306ZM84.7187 33.0893H75.1347V5.12774H80.2884V28.093H84.7187V33.0893ZM45.9307 14.5505C45.9307 16.8295 44.891 18.232 43.6704 18.8017C43.2635 18.977 42.8566 19.0647 42.4498 19.0647V10.0802H42.495C42.9018 10.0802 45.9307 10.2117 45.9307 14.5505ZM29.9725 12.3592L31.4644 24.3239H28.5259L29.9725 12.3592Z" fill="#E50B14"/>
</svg>
